<?xml version="1.0" encoding="utf-8"?>
<!-- Generator: Adobe Illustrator 28.0.0, SVG Export Plug-In . SVG Version: 6.00 Build 0)  -->
<svg version="1.1" id="Слой_1" xmlns="http://www.w3.org/2000/svg" xmlns:xlink="http://www.w3.org/1999/xlink" x="0px" y="0px"
	 viewBox="0 0 1000.9830322 1000.5302124" enable-background="new 0 0 1000.9830322 1000.5302124" xml:space="preserve">
<g>
	<g>
		<defs>
			<path id="SVGID_1_" d="M800.7876587,1000.2839966H200.8158569c-110.4839783,0-200.0140991-89.5301514-200.0140991-199.9435425
				V200.3686523c0-110.4839706,89.5301285-200.0141144,200.0140991-200.0141144h599.9718018
				c110.4839478,0,200.0140991,89.5301437,200.0140991,200.0141144v599.9718018
				C1000.7312012,910.7538452,911.2010498,1000.2839966,800.7876587,1000.2839966z"/>
		</defs>
		<clipPath id="SVGID_00000142178519453311819540000009764515976392895363_">
			<use xlink:href="#SVGID_1_"  overflow="visible"/>
		</clipPath>
		<g clip-path="url(#SVGID_00000142178519453311819540000009764515976392895363_)">
			<rect x="0.8017529" y="0.3545388" fill="#005BFF" width="999.9294434" height="999.9294434"/>
		</g>
	</g>
	<g>
		<defs>
			<path id="SVGID_00000142160326691687573660000009965881666907453568_" d="M800.7875977,0.3546697H200.815918
				c-110.4840546,0-200.0141144,89.5300598-200.0141144,200.0140991v599.9716797
				c0,110.4134521,89.5300598,199.9434814,200.0141144,199.9434814h599.9716797
				c110.4134521,0,199.9436646-89.5300293,200.0140991-199.9434814V200.3687744
				C1000.8016968,89.8847275,911.2716675,0.3546697,800.7875977,0.3546697z"/>
		</defs>
		<clipPath id="SVGID_00000076592272466494375700000017632552893166071178_">
			<use xlink:href="#SVGID_00000142160326691687573660000009965881666907453568_"  overflow="visible"/>
		</clipPath>
		<g clip-path="url(#SVGID_00000076592272466494375700000017632552893166071178_)">
			<g>
				<g>
					<g>
						<path fill="#F1117E" d="M1111.3562012,857.0640259c-75.9772949,68.3418579-163.5665894,169.2127075-273.5943604,165.2416992
							c-29.6190186-19.9597778,17.2196655-58.8707886,32.2320557-75.7106323
							c47.9569092-53.7947998,95.2697754-111.2172241,141.8866577-169.7460938
							C1179.5765381,566.3019409,1124.6800537,683.6646729,1111.3562012,857.0640259z"/>
						<path fill="#F1117E" d="M916.3513184-178.4940491C841.5063477-7.3693213,749.7382812,162.6250305,620.2508545,299.3568726
							c-89.5994873,94.6123352-151.9805298,165.2676086-262.5326233,250.2987671
							C229.8353424,648.0167847,104.7223816,724.6889648-16.408289,828.9891968
							c-64.0103531,58.9313965-139.477478,107.6662598-220.9069519,142.2897949
							c0.4988403,6.6401367,7.3423462,102.6610718,7.5540161,103.9309692
							c1.12883-0.6350098,23.7759247-18.8372803,28.2912292-22.1531982
							c191.1072083-132.90802,410.8418579-222.2232666,597.9161377-364.5559082
							C626.637146,494.8684082,819.4383545,255.4495087,984.0838623,4.5211082
							C1133.9272461-204.6886139,1232.1967773-208.2134705,916.3513184-178.4940491z"/>
						<path fill="#F1117E" d="M183.7423401,53.268322c-44.6592407,47.2696495-88.2602005,94.609848-131.9317017,142.867218
							c-23.7759304,26.3863373-45.2236481,54.8186951-68.7173691,81.6283417
							c-41.9782715,47.9046021-85.4381256,95.244812-135.035965,134.401001
							c-50.30336,39.6500854-104.4165497,79.7234497-155.7076569,118.1035461
							c-0.1410828-2.8925781-6.2085266-137.3641968-6.3496399-140.3978882
							c21.7299194-36.8280029,43.6009521-78.5240479,59.757309-118.526886
							c9.5244751-23.6348267,17.9201355-48.4690399,27.5151672-72.1038666
							c18.3434448-45.5058594,42.4015808-87.1313629,77.8185425-120.2906723
							c19.7544861-18.5550995,42.4721298-31.6777191,65.8247528-44.1653709
							C-13.0263767-2.7497618,56.9609222-40.9182396,127.159874-78.0989914
							c41.8371658-22.223793,73.5148697-60.9566879,110.8367538-90.2356491l148.088028-6.7024078
							C318.848877-98.4884186,253.8002014-20.8815269,183.7423401,53.268322z"/>
						<path fill="#F1117E" d="M508.4772339,1129.505249c55.7316284-56.5830078,250.986084-188.0234985,219.8740845-206.038208
							c-2.800293-1.62146-6.2623901-1.6187134-9.1756592-0.2103882
							c-107.2340088,51.8393555-207.3451538,125.4957886-282.6873474,218.8890991
							c-1.9441223,2.4099121-4.8674622,3.8096924-7.963623,3.777832c-17.6421509-0.1817627-74.6763-0.8217773-111.265625-1.227417
							c-9.776062-0.1082764-13.6930542-12.6733398-5.7103577-18.317749
							c6.1951294-4.3803711,11.3219604-8.1027832,14.2142334-10.2486572
							c88.3626099-68.1228027,186.7919922-119.2553101,282.1582031-174.8363647
							C722.25354,874.6585083,821.3809204,784.8214111,898.9653931,677.6171875
							c35.6847534-49.3082886,72.071106-98.0056152,114.6896973-141.1499634
							c0.4587402-0.4643555,0.9631958-0.8798218,1.5029907-1.2467041
							c118.9830322-80.8641357,151.8981934-322.6956787,316.0245361-408.1526489
							c6.7810059-3.5307007,14.8664551,1.3904419,14.8000488,9.0352325
							c-0.5400391,62.2114716-82.760376,112.7930145-88.1523438,176.6300659
							c-0.0529785,0.6277771-0.1578369,1.252533-0.3249512,1.8599854
							c-63.8048096,232.0045471-288.6591187,389.3696594-395.367981,510.4917908
							c-63.3844604,71.9458008-138.548584,215.0848389-224.9381104,310.6501465
							c-0.9489136,1.0496826-1.6607666,2.2873535-2.1021118,3.6318359
							c-4.3206787,13.1618652-81.6542358,8.6171875-119.7624512,7.2652588
							C506.5798645,1146.3216553,502.3298645,1135.74646,508.4772339,1129.505249z"/>
						<path fill="#F1117E" d="M-279.262085,1173.6730957c213.933609-147.619751,469.6637878-224.4515991,679.208374-376.6281128
							c121.3792419-104.428894,214.2254333-240.8220215,337.3241272-342.3566589
							c34.0169067-20.4959106,24.4719849,10.6052856,13.4286499,30.7582092
							c-123.6404419,247.9827271-370.5109253,390.2723389-600.541748,526.296936
							C-15.7352867,1117.8238525-48.7778397,1206.2579346-279.262085,1173.6730957z"/>
						<path fill="#F1117E" d="M1194.4162598,156.710556C1380.130249,64.5021362,1331.9351807-32.8990288,1307.8873291-219
							c-97.0566406,68.9359741-158.1000977,146.8854675-232.2282715,237.8423462
							C856.397644,272.587738,778.7149048,643.9334106,481.5968628,833.8425293
							c-152.5661316,88.7514038-275.8796997,214.9798584-406.2261047,331.9519043
							c29.4632492-10.3609619,194.708252,6.9289551,203.0520325-38.5206299
							c38.9639587-65.8775635,81.4904785-118.1596069,153.1056824-149.2045898
							c134.3421936-70.5278931,250.2591248-170.6786499,368.1318665-265.2107544
							C961.3988647,552.8688965,961.5302734,251.1483917,1194.4162598,156.710556z"/>
					</g>
				</g>
			</g>
			<path fill="#F1117E" d="M894.5769043-177.8466034C776.5397339,35.9794502,560.2123413,254.510025,341.4565735,418.1386108
				c-85.1842346,63.7175293-184.0839081,106.4511108-288.7163086,125.6432495
				c-79.8281708,14.642395-114.6282349,37.9226685-228.711441,133.7570801
				c-39.4420471,41.1150513-60.6781311,79.2835083-94.7546234,144.9672241
				c-0.0705566-2.2576294-9.3128357-204.8822021-9.3128357-204.8822021
				c90.7574768-123.6395264,229.5231628-177.265564,334.6304321-282.6259766
				c86.6705551-90.5012665,147.1624146-203.9934845,227.105835-300.3400879
				c39.9165344-50.7365189,166.4464111-165.1775055,190.2736816-193.3895721
				c0.28302,0.0045776,130.9448242-5.9217529,130.9448242-5.9217529
				C543.1876831-89.0009155,482.3522034-16.8079967,356.1461792,132.5482483
				c-15.1844177,17.9697266-140.6027222,147.1029053-186.446701,218.1491699
				c-14.9261627,23.1316528-25.036499,46.6535645-13.7730408,55.4295349
				c11.9316254,9.2966003,28.7330017-6.1635437,55.9034424-23.1398315
				C367.7406921,285.572876,476.7340698,193.6174469,602.9910889,36.3536682
				C807.3727417-218.2209473,650.7141724-195.5870972,894.5769043-177.8466034z"/>
		</g>
		<g clip-path="url(#SVGID_00000076592272466494375700000017632552893166071178_)">
			<path fill="#FFFFFF" d="M419.9289856,576.4767456l-88.2298889,23.6411133l72.7016602-179.3253479
				c1.5960693-4.0030212-0.3543701-8.5385132-4.3571167-10.1347961c-1.5449829-0.6157837-3.2450256-0.7217712-4.8548584-0.303009
				l-163.0092316,43.6781921c-14.3882599,3.8553162-22.9279785,18.6467285-19.0726471,33.0350037
				c3.8553162,14.3882751,18.646637,22.9281616,33.0348969,19.0728455l73.3016815-19.6411438L246.337738,666.0088501
				c-1.6553192,3.9332886,0.1905975,8.4640503,4.1236877,10.1192627c1.6118774,0.6785278,3.4066315,0.7892456,5.0876465,0.3161011
				l178.3604126-47.7915649c14.1691895-4.597229,21.9286499-19.8114624,17.329071-33.9801636
				c-4.2632751-13.1384277-17.7619629-20.9318848-31.271759-18.0546875L419.9289856,576.4767456z M946.3943481,262.6596069
				c-14.3908691,3.8560181-22.9282837,18.6468506-19.072937,33.0350952l23.4145508,87.3842773l-170.7711182-74.0118408
				c-3.8934937-1.7515869-8.4664917-0.0151367-10.2178955,3.878418c-0.7381592,1.6429138-0.8791504,3.4934082-0.3986206,5.2304077
				l48.1307983,179.6265869c3.8552856,14.3882446,18.6459961,22.9257202,33.0342407,19.0703735
				c14.3882446-3.8552856,22.928894-18.6443787,19.0736084-33.0326233l-23.4145508-87.3842773l170.789978,74.0823669
				c3.9627686,1.690155,8.5443115-0.1542969,10.2321777-4.1164246c0.6813965-1.6000671,0.8109131-3.382019,0.3631592-5.0623169
				l-48.1307983-179.6265869C975.5715942,267.3448181,960.7825928,258.8042908,946.3943481,262.6596069 M618.3394775,528.5951538
				c-59.5709839,15.9619751-112.5578613-3.5002441-120.085968-31.5954285
				c-7.5281067-28.0953369,28.629425-71.4411316,88.2004089-87.4031067
				c59.5709229-15.9620056,112.5571899,3.4977722,120.0852661,31.5931091
				C714.0673218,469.2849121,678.0512085,512.5953979,618.3394775,528.5951538 M572.510498,357.5591736
				c-86.2567139,23.1124268-142.8032532,91.7715149-126.294281,153.3838806
				c16.5089417,61.6122437,99.809845,92.8018188,186.0665588,69.6893921s142.800354-91.7732239,126.2914429-153.3854675
				C742.0652466,365.6346436,658.7672119,334.4467468,572.510498,357.5591736 M105.5302048,666.0775757
				c-32.8885345,8.8551636-66.7287903-10.6287231-75.5846176-43.5196533
				c-8.8528824-32.8891602,10.6310234-66.7293091,43.5201721-75.5821533
				c32.8885269-8.8551636,66.7285004,10.6287842,75.5839539,43.5172119l0.0189056,0.0705566
				C157.8769836,623.4367676,138.393219,657.2315063,105.5302048,666.0775757 M59.682354,494.9710693
				c-61.6488533,16.4760132-98.2689667,79.8109131-81.7906342,141.4591675
				c16.4766541,61.651123,79.8107605,98.2688599,141.4596558,81.7929688
				c61.6482315-16.4783325,98.268959-79.8109741,81.7900162-141.4614868
				c-0.0126038-0.0469971-0.0252075-0.0940552-0.0377655-0.1409302
				C184.5984497,515.022644,121.2826691,478.4653015,59.682354,494.9710693"/>
		</g>
	</g>
	<path fill="none" d="M800.7876587,1000.2839966H200.8158569c-110.4839783,0-200.0140991-89.5301514-200.0140991-199.9435425
		V200.3686523c0-110.4839706,89.5301285-200.0141144,200.0140991-200.0141144h599.9718018
		c110.4839478,0,200.0140991,89.5301437,200.0140991,200.0141144v599.9718018
		C1000.7312012,910.7538452,911.2010498,1000.2839966,800.7876587,1000.2839966z"/>
</g>
</svg>